<svg width="910" height="418" viewBox="0 0 910 418" fill="none" xmlns="http://www.w3.org/2000/svg">
<path fill-rule="evenodd" clip-rule="evenodd" d="M556.28 407.09L557.39 415.86C555.13 416.45 553.09 416.74 551.27 416.74C548.41 416.74 546.11 416.18 544.37 415.06C542.63 413.94 541.43 412.4 540.78 410.45C540.13 408.5 539.81 404.62 539.81 398.81V365.1H533.8V357.38H539.81V342.87L547.99 336.91V357.38H556.28V365.1H547.99V399.36C547.99 402.52 548.23 404.56 548.71 405.48C549.41 406.8 550.73 407.47 552.66 407.47C553.59 407.47 554.79 407.34 556.28 407.08V407.09ZM574.72 415.98V335.1H582.9V364.12C584.83 361.44 587.01 359.42 589.44 358.08C591.87 356.74 594.55 356.07 597.48 356.07C602.64 356.07 606.71 357.7 609.7 360.95C612.69 364.2 614.18 370.17 614.18 378.85V415.98H606V378.85C606 373.77 605.09 370.13 603.27 367.93C601.45 365.73 598.95 364.62 595.76 364.62C592.2 364.62 589.17 366.04 586.66 368.87C584.16 371.7 582.9 376.72 582.9 383.93V415.98H574.72ZM670.62 397.11L679.08 398.38C677.67 404.63 675.12 409.35 671.43 412.53C667.74 415.71 663.17 417.3 657.71 417.3C650.85 417.3 645.29 414.72 641.04 409.55C636.79 404.38 634.67 396.93 634.67 387.18C634.67 377.43 636.81 369.35 641.1 364.04C645.39 358.73 650.81 356.07 657.38 356.07C663.95 356.07 668.88 358.68 673.07 363.9C677.26 369.12 679.36 376.68 679.36 386.57L679.3 389.22H643.13C643.46 395.8 645 400.77 647.75 404.12C650.5 407.47 653.83 409.14 657.77 409.14C663.93 409.14 668.21 405.13 670.63 397.11H670.62ZM643.63 381.05H670.68C670.31 375.97 669.21 372.19 667.4 369.69C664.77 366.05 661.41 364.23 657.33 364.23C653.66 364.23 650.52 365.75 647.92 368.78C645.32 371.81 643.89 375.91 643.63 381.06V381.05ZM700.3 415.98V357.39H707.65V365.61C709.28 362.56 711.38 360.2 713.94 358.55C716.5 356.9 719.3 356.07 722.34 356.07C725.75 356.07 728.64 356.94 730.99 358.69C733.34 360.44 735.02 362.98 736.03 366.33C737.96 362.91 740.18 360.34 742.68 358.63C745.18 356.92 747.96 356.06 751 356.06C755.64 356.06 759.29 357.62 761.96 360.75C764.63 363.88 765.97 368.88 765.97 375.76V415.98H757.79V379.07C757.79 374.88 757.48 371.91 756.87 370.16C756.26 368.41 755.27 367.06 753.89 366.11C752.51 365.16 750.98 364.68 749.27 364.68C745.75 364.68 742.87 366.07 740.64 368.85C738.41 371.63 737.3 375.99 737.3 381.95V415.99H729.06V377.92C729.06 373.07 728.31 369.64 726.81 367.66C725.31 365.68 723.24 364.68 720.6 364.68C716.85 364.68 713.89 366.18 711.72 369.18C709.55 372.18 708.46 377.65 708.46 385.59V415.99H700.28L700.3 415.98ZM821.97 397.11L830.43 398.38C829.02 404.63 826.47 409.35 822.78 412.53C819.09 415.71 814.52 417.3 809.06 417.3C802.2 417.3 796.64 414.72 792.39 409.55C788.14 404.38 786.02 396.93 786.02 387.18C786.02 377.43 788.16 369.35 792.45 364.04C796.74 358.73 802.16 356.07 808.73 356.07C815.3 356.07 820.23 358.68 824.42 363.9C828.61 369.12 830.71 376.68 830.71 386.57L830.65 389.22H794.48C794.81 395.8 796.35 400.77 799.1 404.12C801.85 407.47 805.18 409.14 809.12 409.14C815.28 409.14 819.56 405.13 821.98 397.11H821.97ZM794.98 381.05H822.03C821.66 375.97 820.56 372.19 818.75 369.69C816.12 366.05 812.76 364.23 808.68 364.23C805.01 364.23 801.87 365.75 799.27 368.78C796.67 371.81 795.24 375.91 794.98 381.06V381.05ZM848.42 398.49L856.55 396.95C857.03 401.07 858.35 404.13 860.5 406.14C862.65 408.14 865.51 409.15 869.07 409.15C872.63 409.15 875.39 408.28 877.33 406.53C879.27 404.78 880.25 402.57 880.25 399.88C880.25 397.56 879.42 395.76 877.75 394.47C876.6 393.59 873.82 392.48 869.4 391.16C863.02 389.21 858.75 387.56 856.6 386.19C854.45 384.83 852.78 383.01 851.59 380.73C850.4 378.45 849.81 375.86 849.81 372.95C849.81 367.95 851.42 363.88 854.65 360.76C857.88 357.64 862.35 356.07 868.06 356.07C871.66 356.07 874.82 356.71 877.55 358C880.28 359.29 882.36 361.02 883.81 363.19C885.26 365.36 886.26 368.47 886.82 372.51L878.81 373.83C878.07 367.43 874.56 364.23 868.29 364.23C864.73 364.23 862.08 364.94 860.33 366.35C858.58 367.76 857.71 369.58 857.71 371.78C857.71 373.98 858.54 375.66 860.21 376.91C861.21 377.65 864.18 378.82 869.11 380.44C875.9 382.61 880.3 384.33 882.3 385.6C884.3 386.87 885.86 388.6 886.97 390.79C888.08 392.98 888.64 395.58 888.64 398.6C888.64 404.19 886.85 408.71 883.27 412.17C879.69 415.63 874.8 417.36 868.61 417.36C857 417.36 850.26 411.07 848.41 398.49H848.42Z" fill="white"/>
<path fill-rule="evenodd" clip-rule="evenodd" d="M0 227.54C0 202.11 6.7 181.69 20.09 166.28C33.48 150.87 49.8 143.17 69.04 143.17C81.46 143.17 93.39 146.59 104.84 153.44C116.29 160.29 125.78 168.85 133.33 179.12C135.28 181.57 136.25 184.26 136.25 187.19V187.92C136.25 190.12 135.64 192.08 134.42 193.79C133.2 195.5 131.25 197.03 128.58 198.38C125.91 199.73 123.59 200.76 121.64 201.5C119.69 202.24 116.83 203.21 113.06 204.43C109.29 205.65 106.91 206.39 105.94 206.63C55.04 224.24 28.98 233.41 27.77 234.14C26.8 234.63 26.31 235.36 26.31 236.34C26.31 237.81 26.68 240.25 27.41 243.68C28.14 247.1 29.78 251.63 32.34 257.25C34.9 262.87 38.06 268.07 41.84 272.84C45.61 277.61 51.03 281.77 58.1 285.31C65.16 288.86 73.08 290.63 81.84 290.63C98.89 290.63 113.74 284.52 126.41 272.29C129.82 268.87 132.62 267.15 134.81 267.15C138.95 267.15 141.02 268.98 141.02 272.65C141.02 274.12 140.05 276.07 138.1 278.52C130.31 288.79 120.57 296.92 108.88 302.91C97.19 308.9 84.89 311.9 71.98 311.9C63.7 311.9 55.6 310.43 47.69 307.5C39.78 304.57 32.1 300.04 24.68 293.93C17.26 287.82 11.29 279.01 6.78 267.52C2.27 256.03 0.0199986 242.7 0.0199986 227.54H0ZM100.09 188.66C100.09 185.48 95.83 180.53 87.3 173.8C78.78 167.07 69.89 163.71 60.63 163.71C49.67 163.71 40.96 168.48 34.51 178.02C28.06 187.56 24.83 200.64 24.83 217.27C24.83 219.23 25.44 220.2 26.66 220.2C27.15 220.2 38.78 215.74 61.55 206.81C84.32 197.88 96.07 193.3 96.8 193.05C98.99 191.83 100.09 190.36 100.09 188.65V188.66ZM214.84 299.81C214.84 304.7 213.38 307.15 210.46 307.15C210.22 307.15 209.42 307.09 208.09 306.97C206.76 306.85 204.98 306.66 202.79 306.42C200.6 306.18 198.16 305.93 195.48 305.69C192.8 305.45 189.64 305.26 185.98 305.14C182.32 305.02 178.8 304.96 175.39 304.96C171.98 304.96 168.57 305.02 165.16 305.14C161.75 305.26 158.71 305.38 156.03 305.51C153.35 305.64 150.98 305.82 148.91 306.06C146.84 306.3 145.2 306.49 143.98 306.61C142.76 306.73 142.03 306.79 141.79 306.79C138.14 306.79 136.31 304.59 136.31 300.19V299.09C136.31 295.91 137.1 293.89 138.68 293.04C140.26 292.19 144.59 291.39 151.65 290.66C156.03 290.17 158.9 288.76 160.23 286.44C161.56 284.12 162.24 280.75 162.24 276.35V85.23C162.24 84.5 162.18 83.82 162.06 83.21C161.94 82.6 161.76 82.05 161.51 81.56C161.27 81.07 161.08 80.64 160.96 80.28C160.84 79.92 160.47 79.55 159.86 79.18C159.25 78.81 158.76 78.51 158.4 78.26C158.03 78.02 157.3 77.59 156.21 76.98C155.12 76.37 154.32 75.94 153.84 75.7C151.4 74.23 148.79 72.7 145.99 71.11C143.19 69.52 141.24 68.36 140.15 67.63C139.06 66.9 137.9 66.1 136.68 65.25C135.46 64.39 134.67 63.66 134.31 63.05C133.95 62.44 133.76 61.77 133.76 61.03V60.66C133.76 59.44 138.39 56.38 147.64 51.49C159.09 45.87 169.8 40.36 179.79 34.98C181.25 34 182.83 33.51 184.54 33.51C187.95 33.51 189.65 35.83 189.65 40.48V278.19C189.65 279.66 189.71 280.88 189.83 281.86C189.95 282.84 190.13 283.76 190.38 284.61C190.62 285.47 190.87 286.14 191.11 286.63C191.35 287.12 191.9 287.61 192.75 288.1C193.6 288.59 194.21 288.96 194.58 289.2C194.95 289.44 195.8 289.75 197.14 290.12C198.48 290.49 199.45 290.73 200.06 290.85C200.67 290.97 202.01 291.16 204.08 291.4C206.15 291.64 207.67 291.89 208.65 292.13C212.79 292.86 214.86 295.43 214.86 299.83L214.84 299.81ZM203.39 227.54C203.39 202.11 210.09 181.69 223.48 166.28C236.87 150.87 253.19 143.17 272.43 143.17C284.85 143.17 296.78 146.59 308.23 153.44C319.68 160.29 329.17 168.85 336.72 179.12C338.67 181.57 339.64 184.26 339.64 187.19V187.92C339.64 190.12 339.03 192.08 337.81 193.79C336.59 195.5 334.64 197.03 331.97 198.38C329.3 199.73 326.98 200.76 325.03 201.5C323.08 202.23 320.22 203.21 316.45 204.43C312.68 205.65 310.3 206.39 309.33 206.63C258.43 224.24 232.37 233.41 231.16 234.14C230.19 234.63 229.7 235.36 229.7 236.34C229.7 237.81 230.07 240.25 230.8 243.68C231.53 247.11 233.17 251.63 235.73 257.25C238.29 262.87 241.45 268.07 245.23 272.84C249 277.61 254.42 281.77 261.49 285.31C268.55 288.86 276.47 290.63 285.23 290.63C302.28 290.63 317.13 284.52 329.8 272.29C333.21 268.87 336.01 267.15 338.2 267.15C342.34 267.15 344.41 268.98 344.41 272.65C344.41 274.12 343.44 276.07 341.49 278.52C333.7 288.79 323.96 296.92 312.27 302.91C300.58 308.9 288.28 311.9 275.37 311.9C267.09 311.9 258.99 310.43 251.08 307.5C243.17 304.57 235.49 300.04 228.07 293.93C220.64 287.82 214.68 279.01 210.17 267.52C205.66 256.03 203.41 242.7 203.41 227.54H203.39ZM306.58 188.66C306.58 185.48 302.32 180.53 293.79 173.8C285.27 167.07 276.38 163.71 267.12 163.71C256.16 163.71 247.45 168.48 241 178.02C234.55 187.56 231.32 200.64 231.32 217.27C231.32 219.23 231.93 220.2 233.15 220.2C233.64 220.2 245.27 215.74 268.04 206.81C290.81 197.88 302.56 193.3 303.29 193.05C305.48 191.83 306.58 190.36 306.58 188.65V188.66ZM347.71 200.76C347.71 184.86 353.49 171.17 365.06 159.67C376.63 148.18 390.94 142.43 407.98 142.43C418.45 142.43 428.62 144.63 438.48 149.03C448.34 153.43 453.88 155.63 455.1 155.63C462.89 155.63 469.47 151.72 474.83 143.89C478.48 138.02 482.01 135.09 485.42 135.09C488.83 135.09 492.06 136.74 495.1 140.04C498.14 143.34 499.67 146.83 499.67 150.49C499.67 154.89 497.78 158.68 494.01 161.86C490.24 165.04 485.85 167.67 480.86 169.75C475.87 171.83 473.25 172.99 473.01 173.23C471.79 174.45 471.18 175.43 471.18 176.16C471.18 176.65 471.55 177.87 472.28 179.83C473.01 181.79 473.74 184.54 474.47 188.08C475.2 191.62 475.57 195.48 475.57 199.64C475.57 217 469.54 231.86 457.49 244.21C445.43 256.56 430.76 262.74 413.47 262.74C408.6 262.74 403.97 262.19 399.59 261.09C395.21 259.99 392.53 259.44 391.55 259.44C388.14 259.44 384.49 261.58 380.59 265.86C376.69 270.14 374.75 274.36 374.75 278.52C374.75 285.12 380.05 289.52 390.64 291.73C401.23 293.93 414.75 295.28 431.19 295.77C447.63 296.26 459.38 297.6 466.44 299.81C477.64 302.99 486.11 308.43 491.83 316.13C497.55 323.83 500.41 332.21 500.41 341.26C500.41 346.88 499.19 352.51 496.76 358.13C494.33 363.75 490.37 369.26 484.89 374.64C479.41 380.02 471.31 384.42 460.6 387.85C449.88 391.27 437.22 392.99 422.61 392.99C395.58 392.99 376.64 388.04 365.81 378.13C354.97 368.23 349.55 357.4 349.55 345.67C349.55 343.22 349.79 340.84 350.28 338.52C350.77 336.2 351.38 334.12 352.11 332.28C352.84 330.45 353.63 328.73 354.48 327.14C355.33 325.55 356.31 324.08 357.4 322.74C358.5 321.39 359.59 320.23 360.69 319.26C361.79 318.28 362.82 317.43 363.8 316.69C364.77 315.96 365.63 315.28 366.36 314.67C367.09 314.06 367.7 313.63 368.19 313.39L368.92 313.02C369.41 312.53 369.65 311.92 369.65 311.19C369.65 310.95 368.49 310.09 366.18 308.62C363.87 307.15 361.55 304.71 359.24 301.28C356.93 297.85 355.77 293.7 355.77 288.81C355.77 276.83 362.71 265.21 376.59 253.96L376.96 253.59C377.2 253.35 377.33 252.98 377.33 252.49C377.33 251.51 376.23 250.41 374.04 249.19C371.85 247.97 368.86 245.58 365.09 242.04C361.32 238.5 357.84 233.91 354.68 228.28C350.05 219.97 347.74 210.79 347.74 200.77L347.71 200.76ZM409.08 154.91C399.58 154.91 391.79 158.76 385.7 166.47C379.61 174.18 376.57 184.14 376.57 196.37C376.57 210.8 380.22 223.27 387.53 233.79C394.84 244.31 404.09 249.56 415.29 249.56C425.28 249.56 433.31 245.59 439.4 237.64C445.49 229.69 448.53 219.85 448.53 208.11C448.53 194.17 444.82 181.82 437.39 171.06C429.96 160.3 420.53 154.92 409.08 154.92V154.91ZM370.36 337.96C370.36 348.97 376.14 357.89 387.71 364.74C399.28 371.59 413.83 375.01 431.36 375.01C448.89 375.01 460.89 372.26 468.07 366.76C475.25 361.26 478.85 354.96 478.85 347.87C478.85 337.6 473.86 330.14 463.87 325.49C458.76 322.8 452.79 321.03 445.97 320.17C439.15 319.31 429.59 318.7 417.29 318.34C404.99 317.97 394.22 317.3 384.96 316.32H383.86C382.16 316.32 379.96 317.67 377.28 320.36C372.65 325.01 370.34 330.88 370.34 337.97L370.36 337.96ZM493.89 175.45C493.89 168.11 499.8 160.72 511.61 153.26C523.42 145.8 536.63 142.07 551.25 142.07C555.88 142.07 560.63 142.56 565.5 143.54C570.37 144.52 575.91 146.23 582.12 148.68C588.33 151.13 593.57 155.34 597.83 161.34C602.09 167.33 604.71 174.61 605.68 183.17C606.17 189.04 606.41 193.56 606.41 196.74V270.84C606.41 275.24 607.26 278.79 608.97 281.48C610.68 284.17 612.38 285.82 614.08 286.43C615.78 287.04 617.49 287.35 619.19 287.35C622.6 287.35 625.28 286.31 627.23 284.23C629.18 282.15 630.7 280.07 631.8 277.99C632.9 275.91 634.17 274.87 635.64 274.87C637.83 274.87 638.93 276.46 638.93 279.64C638.93 285.51 636.25 291.93 630.89 298.9C625.53 305.87 618.59 309.35 610.07 309.35C606.9 309.35 603.86 308.86 600.94 307.88C598.02 306.9 595.58 305.62 593.63 304.03C591.68 302.44 589.92 300.91 588.33 299.44C586.75 297.97 585.47 296.63 584.49 295.4L583.39 293.93C583.02 293.62 582.9 293.56 582.66 293.56C582.17 293.56 581.81 293.8 581.56 294.29C581.31 294.78 580.46 295.76 579 297.22C577.54 298.69 575.47 300.28 572.79 301.99C561.83 308.84 550.26 312.26 538.09 312.26C525.92 312.26 515.14 308.22 507.22 300.15C499.3 292.08 495.35 282.18 495.35 270.44C495.35 255.89 500.59 244.76 511.06 236.69C514.71 233.76 519.46 231.13 525.31 228.8C531.16 226.47 536.94 224.7 542.66 223.48C548.38 222.26 553.8 221.22 558.92 220.36C564.03 219.5 568.3 218.95 571.71 218.71L576.82 218.34C578.77 217.85 579.74 216.14 579.74 213.2V199.63C579.74 186.67 576.82 176.64 570.97 169.55C564.88 162.95 557.58 159.65 549.05 159.65C535.9 159.65 525.18 167.96 516.9 184.59C514.71 187.52 512.03 188.99 508.86 188.99C504.96 188.99 501.49 187.77 498.45 185.32C495.41 182.87 493.88 179.57 493.88 175.42L493.89 175.45ZM546.86 291.74C552.46 291.74 557.76 290.52 562.75 288.07C567.74 285.62 571.21 283.42 573.16 281.47C575.11 279.51 576.69 277.8 577.91 276.33C579.37 274.37 580.1 271.56 580.1 267.89V243.31C580.1 238.66 579.92 235.67 579.55 234.32C579.18 232.97 578.15 232.3 576.44 232.3C570.35 232.3 562.74 233.28 553.61 235.23C544.48 237.19 537.23 240.73 531.87 245.87C526.03 250.76 523.1 257.61 523.1 266.41C523.1 275.7 525.66 282.55 530.77 286.95C534.18 290.13 539.54 291.72 546.84 291.72L546.86 291.74ZM685.34 163.34C685.34 164.32 685.71 164.81 686.44 164.81H686.81C687.05 164.81 687.97 164.08 689.55 162.61C691.13 161.14 693.39 159.31 696.31 157.11C699.23 154.91 702.64 152.71 706.54 150.51C710.44 148.31 715.19 146.41 720.79 144.82C726.39 143.23 732.24 142.44 738.32 142.44H739.05C744.16 142.44 749.22 143.11 754.21 144.46C759.2 145.81 764.56 148.25 770.28 151.8C776 155.35 780.81 160.91 784.71 168.49C788.61 176.07 791.04 185.36 792.02 196.37C792.51 200.53 792.75 206.89 792.75 215.45V222.6C792.75 226.39 792.69 233.18 792.57 242.96C792.45 252.74 792.39 265.21 792.39 280.38V281.11C792.39 282.33 792.51 283.49 792.76 284.59C793 285.69 793.19 286.55 793.31 287.16C793.43 287.77 793.86 288.38 794.59 288.99C795.32 289.6 795.87 290.03 796.23 290.27C796.59 290.51 797.45 290.82 798.79 291.19C800.13 291.56 801.1 291.74 801.71 291.74C802.32 291.74 803.66 291.86 805.73 292.11C807.8 292.36 809.32 292.6 810.3 292.84C813.95 293.33 815.78 295.65 815.78 299.81C815.78 304.7 813.83 307.15 809.94 307.15C809.21 307.15 807.5 306.97 804.83 306.6C802.16 306.23 798.44 305.87 793.69 305.5C788.94 305.13 783.89 304.95 778.53 304.95C775.36 304.95 772.2 305.01 769.03 305.13C765.86 305.25 763.12 305.44 760.81 305.68C758.5 305.92 756.37 306.17 754.42 306.41C752.47 306.65 750.89 306.9 749.67 307.14H747.84C744.43 307.14 742.73 304.69 742.73 299.8C742.73 297.11 743.46 295.4 744.92 294.66C746.38 293.93 750.28 293.07 756.61 292.09C758.8 291.6 760.63 291.23 762.09 290.99C764.53 290.5 766.17 289.71 767.02 288.61C767.87 287.51 768.3 285.37 768.3 282.19V223.86C768.3 205.52 766.6 191.95 763.19 183.14C759.54 174.83 754.06 169.02 746.75 165.72C739.44 162.42 732.5 160.77 725.93 160.77C716.43 160.77 707.91 163.7 700.36 169.57C692.81 175.44 688.55 180.57 687.57 184.98C687.08 186.94 686.84 188.65 686.84 190.12V279.99C686.84 286.35 689.64 289.89 695.24 290.63C706.2 292.34 712.17 293.69 713.14 294.67C714.6 295.89 715.33 297.97 715.33 300.91C715.33 305.31 713.75 307.51 710.58 307.51C710.34 307.51 709.54 307.45 708.21 307.33C706.87 307.21 705.1 307.02 702.91 306.78C700.72 306.54 698.28 306.23 695.6 305.86C692.92 305.49 689.82 305.25 686.28 305.13C682.75 305.01 679.28 304.95 675.87 304.95C672.46 304.95 669.05 305.01 665.64 305.13C662.23 305.25 659.25 305.44 656.69 305.68C654.13 305.92 651.88 306.17 649.93 306.41C647.98 306.65 646.4 306.84 645.18 306.96C643.96 307.08 643.23 307.14 642.99 307.14C638.85 307.14 636.78 304.94 636.78 300.54C636.78 297.12 637.57 294.98 639.15 294.12C640.73 293.26 644.81 292.35 651.39 291.37C655.77 290.64 658.51 289.29 659.61 287.33C660.71 285.37 661.25 282.44 661.25 278.53V189.02C661.25 184.62 660.64 181.62 659.42 180.03C658.2 178.44 653.21 174.34 644.44 167.74C642.98 166.27 642.25 165.05 642.25 164.07V163.7C642.25 162.48 643.1 161.32 644.81 160.22C646.52 159.12 651.75 156.25 660.52 151.6C667.34 147.93 673.06 144.87 677.69 142.43C679.15 141.45 680.37 140.96 681.34 140.96C684.26 140.96 685.72 142.79 685.72 146.46V161.13C685.72 161.37 685.6 161.86 685.35 162.6V163.33L685.34 163.34ZM803.95 167.75C798.84 167.75 796.28 166.16 796.28 162.98C796.28 161.51 798.05 159.25 801.58 156.19C805.11 153.13 810.16 148 816.74 140.78C823.32 133.57 829.53 125.07 835.37 115.29C838.05 110.64 840.48 108.32 842.68 108.32C846.09 108.32 847.79 110.4 847.79 114.56C847.79 116.27 847.73 120.67 847.61 127.77C847.49 134.87 847.43 139.26 847.43 140.98C847.43 145.87 849.87 148.32 854.74 148.32H888.35C888.84 148.32 889.45 148.38 890.18 148.5C890.91 148.62 891.4 148.68 891.64 148.68C897.97 148.68 901.14 151 901.14 155.65C901.14 160.3 900.04 163.96 897.85 166.65C896.63 167.87 894.44 168.48 891.27 168.48H847.43C844.99 168.48 843.78 169.7 843.78 172.15C843.78 192.45 843.72 209.32 843.6 222.77C843.48 236.22 843.36 245.27 843.23 249.92C843.11 254.57 843.05 257.87 843.05 259.82C843.05 278.41 849.5 287.7 862.41 287.7C867.52 287.7 872.88 285.8 878.48 282.01C884.08 278.22 889.01 274.43 893.27 270.64C897.53 266.85 900.76 264.95 902.95 264.95C904.9 264.95 906.54 265.68 907.88 267.15C909.22 268.62 909.89 270.21 909.89 271.92C909.89 273.39 909.04 275.47 907.33 278.16C887.6 300.66 870.19 311.91 855.09 311.91C846.08 311.91 837.86 308.3 830.43 301.09C823 293.88 818.68 282.32 817.46 266.42C817.22 263.73 817.09 259.69 817.09 254.31C817.09 248.2 817.33 233.34 817.82 209.74C818.31 186.14 818.55 173.24 818.55 171.04C818.55 168.84 817.7 167.74 815.99 167.74H803.94L803.95 167.75Z" fill="white"/>
<path fill-rule="evenodd" clip-rule="evenodd" d="M722.67 121.84L696.77 101.44C705 92.03 713.58 83.02 722.5 74.42C726.04 70.93 728.27 68.72 729.19 67.8C726.33 67.34 718.16 65.42 704.66 62.05C694.94 59.61 688.54 57.81 685.45 56.65L695.57 25.97C710.55 32.13 723.93 38.93 735.71 46.37C732.97 27.43 731.59 11.97 731.59 0H762.12C762.12 8.48 760.58 24.06 757.49 46.72C759.78 45.79 764.69 43.52 772.24 39.92C782.53 35.15 792.02 31.09 800.71 27.72L809.8 59.28C797.11 62.19 782.41 65.03 765.72 67.82L786.3 91.36C790.42 96.13 793.68 100.02 796.08 103.04L769.84 120.65L746.68 81.77C739.7 94.32 731.7 107.69 722.67 121.87V121.84Z" fill="#F92C8B"/>
</svg>
