<svg width="917" height="195" viewBox="0 0 917 195" fill="none" xmlns="http://www.w3.org/2000/svg">
<path d="M97.11 0C43.47 0 0 43.48 0 97.11C0 150.74 43.48 194.22 97.11 194.22C150.74 194.22 194.22 150.74 194.22 97.11C194.2 43.47 150.73 0 97.11 0ZM72.83 137.57H56.67V56.65H72.83V137.57ZM137.56 137.57H89V121.39H137.56V137.57ZM137.56 105.19H89V89.01H137.56V105.19ZM137.56 72.82H89V56.64H137.56V72.82ZM604.56 100.38L591.21 103.46L581.9 105.51H581.82C581.82 103.08 582 100.52 582.61 98.17C583.37 95.14 585.07 91.61 588.01 90.06C591.25 88.38 595.06 88.17 598.47 89.48C601.98 90.82 603.58 94.09 604.27 97.49C604.46 98.44 604.59 99.38 604.68 100.34L604.57 100.39L604.56 100.38ZM628.83 105.51C628.83 82 613.54 71.9 594 71.9C571.91 71.9 558.08 86.71 558.08 105.63C558.08 126.2 569.85 139.59 595.21 139.59C608.92 139.59 616.68 137.24 625.92 132.77L622.41 117.37C615.37 120.42 608.82 122.3 600.07 122.3C590.49 122.3 585.03 118.78 582.95 112.2H628.22C628.59 110.43 628.83 108.43 628.83 105.5V105.51ZM401.43 100.38L388.08 103.46L378.78 105.51H378.7C378.7 103.08 378.88 100.52 379.49 98.17C380.25 95.14 381.95 91.61 384.89 90.06C388.13 88.38 391.94 88.17 395.35 89.48C398.85 90.82 400.46 94.09 401.15 97.49C401.34 98.44 401.47 99.38 401.56 100.34L401.45 100.39L401.43 100.38ZM425.7 105.51C425.7 82 410.41 71.9 390.87 71.9C368.78 71.9 354.95 86.71 354.95 105.63C354.95 126.2 366.72 139.59 392.08 139.59C405.79 139.59 413.55 137.24 422.79 132.77L419.28 117.37C412.24 120.42 405.68 122.3 396.94 122.3C387.36 122.3 381.89 118.78 379.82 112.2H425.09C425.45 110.43 425.7 108.43 425.7 105.5V105.51ZM345.45 54.63H323.03V137.23H345.45V54.63ZM633.56 74.01H657.1L662.06 88.62C665.16 81.41 672.14 72.14 684.51 72.14C701.5 72.14 710.72 80.49 710.72 102V137.26H687.18C687.18 129.9 687.19 122.57 687.2 115.22C687.2 111.85 687.14 108.48 687.19 105.12C687.23 102.01 687.46 98.8 685.75 96.02C684.58 94.13 682.69 92.74 680.65 91.8C676.61 89.87 671.9 89.94 667.92 91.99C666.92 92.51 662.07 95.04 662.07 96.21V137.26H638.53V91.08L633.57 74.02L633.56 74.01ZM728.52 90.59H717.72V74.01H728.52V63.65L752.06 58.28V74.01H775.72V90.58H752.06V109.15C752.06 116.43 755.7 119.84 761.16 119.84C766.62 119.84 769.9 119.13 774.62 117.61L777.41 134.77C770.98 137.47 762.98 138.76 754.84 138.76C737.72 138.76 728.5 130.89 728.5 115.61V90.59H728.51H728.52ZM819.78 120.78C828.4 120.78 833.49 114.78 833.49 105.15C833.49 95.52 828.64 89.99 820.14 89.99C811.64 89.99 806.55 95.51 806.55 105.49C806.55 114.91 811.4 120.77 819.78 120.77V120.78ZM820.03 71.54C842.12 71.54 858.26 84.94 858.26 105.74C858.26 126.54 842.12 139.23 819.79 139.23C797.46 139.23 781.8 126.3 781.8 105.74C781.8 85.18 797.46 71.54 820.03 71.54ZM536.97 73.82C532.72 72.13 528.12 71.57 523.59 72.18C521.3 72.49 519.07 73.15 516.97 74.13C511.26 76.86 506.83 83.08 504.44 88.64C502.8 81.93 498.04 76.42 491.63 73.84C487.39 72.15 482.78 71.59 478.25 72.2C475.96 72.51 473.73 73.17 471.63 74.15C465.94 76.86 461.51 83.07 459.11 88.6V88.2L454.31 74.05H430.77L435.73 91.11V137.28H459.12V96.01C459.2 95.71 460.24 95.14 460.43 95C463.17 93.12 466.39 91.18 469.82 90.93C473.32 90.68 476.77 92.4 478.85 95.09C479.07 95.39 479.28 95.68 479.48 95.99C481.2 98.78 480.96 101.99 480.92 105.09C480.88 108.46 480.93 111.83 480.93 115.2C480.92 122.54 480.91 129.89 480.91 137.23H504.46V96.03C504.5 95.73 505.58 95.14 505.78 95.01C508.52 93.13 511.75 91.19 515.17 90.94C518.67 90.69 522.13 92.41 524.21 95.1C524.42 95.4 524.63 95.69 524.83 96C526.54 98.79 526.31 102 526.27 105.1C526.23 108.47 526.28 111.84 526.28 115.21C526.27 122.55 526.26 129.9 526.26 137.24H549.8V101.99C549.8 91.65 548.27 78.34 536.97 73.83V73.82ZM913.92 72.13C901.54 72.13 894.58 81.42 891.47 88.61L886.51 74H862.97L867.93 91.06V137.22H891.47V94.56C894.82 93.99 913.03 97.24 916.48 98.46V72.2C915.63 72.15 914.77 72.12 913.92 72.12V72.13ZM289.27 100.38L275.91 103.46L266.6 105.51H266.52C266.52 103.08 266.7 100.52 267.31 98.17C268.08 95.14 269.77 91.61 272.71 90.06C275.96 88.38 279.77 88.17 283.18 89.48C286.68 90.82 288.28 94.09 288.97 97.49C289.16 98.44 289.29 99.38 289.38 100.34L289.27 100.39V100.38ZM313.53 105.51C313.53 82 298.24 71.9 278.7 71.9C256.61 71.9 242.78 86.71 242.78 105.63C242.78 126.2 254.55 139.59 279.91 139.59C293.63 139.59 301.38 137.24 310.62 132.77L307.1 117.37C300.06 120.42 293.51 122.3 284.76 122.3C275.18 122.3 269.72 118.78 267.64 112.2H312.91C313.27 110.43 313.52 108.43 313.52 105.5L313.53 105.51Z" fill="white"/>
</svg>
