<svg width="2500" height="419" viewBox="0 0 2500 419" fill="none" xmlns="http://www.w3.org/2000/svg">
<path fill-rule="evenodd" clip-rule="evenodd" d="M668.069 1.13544L454.896 417.865H254.667L343.88 245.154H339.877C266.278 340.696 156.465 403.591 0 417.865V247.545C0 247.545 100.093 241.633 158.938 179.767H0V1.14007H178.63V148.059L182.639 148.043L255.632 1.14007H390.725V147.126L394.734 147.119L470.465 1.13544H668.069Z" fill="#146EF5"/>
<path d="M1830.51 371.867H1888.04V41.6516H1830.51V371.867Z" fill="white"/>
<path fill-rule="evenodd" clip-rule="evenodd" d="M1513.36 368.494C1525.87 373.693 1538.58 376.29 1551.5 376.29C1572.86 376.29 1591.96 371.094 1608.82 360.698C1625.68 350.302 1638.75 335.971 1648.02 317.709C1657.29 299.304 1661.93 278.443 1661.93 255.121C1661.93 231.8 1657.15 210.939 1647.6 192.534C1638.04 174.131 1624.77 159.872 1607.77 149.756C1590.77 139.501 1571.45 134.443 1549.82 134.584C1536.21 134.553 1522.73 137.276 1510.2 142.591C1497.56 147.929 1487.02 155.515 1478.59 165.351C1477.94 166.098 1477.31 166.855 1476.69 167.619V41.8622H1418.95V371.867H1476.27L1476.16 341.038C1477.66 342.882 1479.25 344.659 1480.91 346.367C1490.04 355.781 1500.86 363.156 1513.36 368.494ZM1572.37 315.179C1562.95 320.939 1552.21 323.821 1540.12 323.821C1528.18 323.821 1517.22 320.869 1507.25 314.969C1497.28 308.927 1489.34 300.709 1483.44 290.314C1477.68 279.918 1474.8 268.117 1474.8 254.911C1474.66 241.705 1477.47 229.904 1483.23 219.508C1489.13 208.971 1497.06 200.823 1507.04 195.064C1517.01 189.161 1528.04 186.284 1540.12 186.422C1552.21 186.284 1562.95 189.091 1572.37 194.853C1581.92 200.471 1589.22 208.55 1594.28 219.087C1599.48 229.48 1602.08 241.425 1602.08 254.911C1602.08 268.397 1599.48 280.339 1594.28 290.735C1589.22 301.131 1581.92 309.279 1572.37 315.179Z" fill="white"/>
<path d="M751.414 61.6701H817.162L875.977 276.462L938.544 61.6701H993.333L1061.19 272.152L1117.66 61.6701H1177.93L1089 371.867H1032.32L963.319 166.242L899.979 371.867H842.66L751.414 61.6701Z" fill="white"/>
<path fill-rule="evenodd" clip-rule="evenodd" d="M1275.03 377.346C1252.12 377.485 1231.47 372.427 1213.07 362.172C1194.81 351.777 1180.41 337.376 1169.87 318.973C1159.47 300.568 1154.28 279.566 1154.28 255.964C1154.28 233.066 1159.62 212.344 1170.29 193.797C1180.97 175.256 1195.44 160.784 1213.7 150.388C1231.97 139.994 1252.34 134.793 1274.81 134.793C1300.1 134.793 1322.23 140.413 1341.19 151.652C1360.3 162.892 1374.56 178.837 1383.97 199.487C1393.53 219.999 1396.97 243.531 1394.3 270.082H1213.79C1214.3 280.661 1216.94 290.286 1221.71 298.953C1227.05 308.506 1234.5 315.953 1244.05 321.29C1253.6 326.628 1264.28 329.297 1276.08 329.297C1285.07 329.159 1293.43 327.612 1301.16 324.663C1308.88 321.573 1315.41 317.427 1320.75 312.23C1326.23 307.031 1330.09 301.131 1332.34 294.529H1392.61C1388.96 310.684 1381.66 325.084 1370.7 337.728C1359.74 350.23 1345.97 359.994 1329.39 367.02C1312.81 374.043 1294.69 377.485 1275.03 377.346ZM1221.92 212.133C1218.55 218.021 1216.18 224.431 1214.92 231.098H1334.58C1333.71 222.54 1331.07 214.744 1326.65 207.707C1321.6 199.42 1314.71 193.027 1306 188.531C1297.29 183.895 1287.46 181.578 1276.5 181.578C1264.84 181.578 1254.23 184.246 1244.68 189.584C1235.13 194.922 1227.54 202.441 1221.92 212.133Z" fill="white"/>
<path d="M1704.28 139.64C1704.28 120.816 1708.57 104.098 1717.14 89.4873C1725.71 74.735 1737.72 63.2859 1753.17 55.1377C1768.77 46.8507 1786.96 42.5637 1807.75 42.2836V93.4919C1798.06 93.6308 1789.77 95.6678 1782.89 99.603C1776.14 103.395 1770.94 108.946 1767.29 116.249C1763.93 122.976 1762.11 130.772 1761.85 139.64H1806.49V188.321H1761.81V371.867H1704.28V188.321H1667.19V139.64H1704.28Z" fill="white"/>
<path fill-rule="evenodd" clip-rule="evenodd" d="M2034.28 376.925C2010.82 376.925 1989.82 371.795 1971.28 361.54C1952.87 351.145 1938.4 336.814 1927.87 318.552C1917.47 300.147 1912.27 279.286 1912.27 255.964C1912.27 232.503 1917.47 211.571 1927.87 193.165C1938.4 174.624 1952.87 160.223 1971.28 149.966C1989.82 139.712 2010.82 134.584 2034.28 134.584C2057.89 134.584 2078.96 139.712 2097.5 149.966C2116.19 160.221 2130.73 174.55 2141.13 192.955C2151.52 211.358 2156.79 232.362 2156.93 255.964C2156.79 279.286 2151.52 300.147 2141.13 318.552C2130.87 336.814 2116.4 351.145 2097.72 361.54C2079.03 371.795 2057.89 376.925 2034.28 376.925ZM2034.28 324.031C2046.65 324.031 2057.61 321.221 2067.16 315.601C2076.71 309.841 2084.09 301.832 2089.28 291.578C2094.48 281.182 2097.08 269.311 2097.08 255.964C2097.08 242.478 2094.48 230.536 2089.28 220.14C2084.09 209.744 2076.71 201.737 2067.16 196.117C2057.61 190.358 2046.65 187.478 2034.28 187.478C2022.06 187.478 2011.18 190.358 2001.62 196.117C1992.21 201.737 1984.9 209.744 1979.71 220.14C1974.51 230.536 1971.98 242.478 1972.12 255.964C1972.12 269.311 1974.72 281.182 1979.92 291.578C1985.25 301.832 1992.56 309.841 2001.83 315.601C2011.25 321.221 2022.06 324.031 2034.28 324.031Z" fill="white"/>
<path d="M2219.09 139.64H2155.03L2224.36 371.867H2280.42L2326.02 223.545L2375.25 371.867H2430.46L2500 139.64H2442.06L2402.62 284.186L2359.03 139.64H2302.97L2259.59 287.371L2219.09 139.64Z" fill="white"/>
</svg>
