<svg width="849" height="511" viewBox="0 0 849 511" fill="none" xmlns="http://www.w3.org/2000/svg">
<path d="M85.21 7.57H763.15C806.05 7.57 840.78 42.3 840.78 85.2V343.98C840.78 386.88 806.05 421.61 763.15 421.61H520.04L553.41 503.33L406.65 421.61H85.55C42.65 421.61 7.92002 386.88 7.92002 343.98V85.2C7.58002 42.64 42.31 7.57 85.21 7.57Z" fill="#7F54B3"/>
<path d="M55.34 78.33C60.08 71.9 67.19 68.51 76.67 67.83C93.94 66.48 103.75 74.6 106.12 92.21C116.62 162.97 128.13 222.89 140.32 271.99L214.46 130.81C221.23 117.94 229.7 111.17 239.85 110.5C254.75 109.48 263.89 118.96 267.61 138.94C276.07 183.97 286.91 222.23 299.77 254.73C308.57 168.73 323.47 106.78 344.46 68.52C349.54 59.04 356.99 54.3 366.81 53.62C374.6 52.94 381.71 55.31 388.14 60.39C394.57 65.47 397.96 71.9 398.64 79.69C398.98 85.78 397.96 90.86 395.25 95.94C382.05 120.32 371.21 161.28 362.41 218.16C353.95 273.35 350.9 316.34 352.93 347.15C353.61 355.61 352.25 363.06 348.87 369.5C344.81 376.95 338.71 381.01 330.93 381.69C322.13 382.37 312.99 378.3 304.18 369.16C272.69 337 247.64 288.92 229.36 224.93C207.35 268.26 191.1 300.77 180.61 322.44C160.64 360.7 143.71 380.33 129.49 381.35C120.35 382.03 112.56 374.24 105.79 357.99C88.52 313.64 69.9 227.98 49.93 101.02C48.58 92.22 50.61 84.43 55.35 78.34L55.34 78.33ZM782.92 131.48C770.73 110.15 752.79 97.28 728.75 92.21C722.32 90.86 716.22 90.18 710.47 90.18C677.97 90.18 651.56 107.11 630.91 140.96C613.3 169.74 604.5 201.56 604.5 236.43C604.5 262.5 609.92 284.84 620.75 303.47C632.94 324.8 650.88 337.67 674.92 342.74C681.35 344.09 687.45 344.77 693.2 344.77C726.04 344.77 752.45 327.84 772.76 293.99C790.37 264.87 799.17 233.05 799.17 198.18C799.51 171.77 793.75 149.77 782.92 131.48ZM740.26 225.26C735.52 247.61 727.06 264.19 714.53 275.37C704.71 284.17 695.57 287.9 687.11 286.2C678.98 284.51 672.21 277.4 667.14 264.19C663.08 253.69 661.05 243.2 661.05 233.38C661.05 224.92 661.73 216.45 663.42 208.67C666.47 194.79 672.22 181.25 681.36 168.38C692.53 151.79 704.38 145.02 716.57 147.39C724.7 149.08 731.47 156.19 736.54 169.4C740.6 179.9 742.63 190.39 742.63 200.21C742.63 209.01 741.95 217.48 740.26 225.26ZM570.98 131.48C558.79 110.15 540.51 97.28 516.81 92.21C510.38 90.86 504.28 90.18 498.53 90.18C466.03 90.18 439.62 107.11 418.97 140.96C401.36 169.74 392.56 201.56 392.56 236.43C392.56 262.5 397.98 284.84 408.81 303.47C421 324.8 438.94 337.67 462.98 342.74C469.41 344.09 475.51 344.77 481.26 344.77C514.1 344.77 540.51 327.84 560.82 293.99C578.43 264.87 587.23 233.05 587.23 198.18C587.23 171.77 581.81 149.77 570.98 131.48ZM527.99 225.26C523.25 247.61 514.79 264.19 502.26 275.37C492.44 284.17 483.3 287.9 474.84 286.2C466.71 284.51 459.94 277.4 454.87 264.19C450.81 253.69 448.78 243.2 448.78 233.38C448.78 224.92 449.46 216.45 451.15 208.67C454.2 194.79 459.95 181.25 469.09 168.38C480.26 151.79 492.11 145.02 504.3 147.39C512.43 149.08 519.2 156.19 524.27 169.4C528.33 179.9 530.36 190.39 530.36 200.21C530.7 209.01 529.68 217.48 527.99 225.26Z" fill="white"/>
</svg>
