<svg width="906" height="210" viewBox="0 0 906 210" fill="none" xmlns="http://www.w3.org/2000/svg">
<path d="M524.26 83.29H489.11V87.02C500.1 87.02 501.87 89.38 501.87 103.32V128.46C501.87 142.4 500.1 144.95 489.11 144.95C480.67 143.77 474.97 139.26 467.12 130.62L458.09 120.8C470.26 118.64 476.74 110.98 476.74 102.34C476.74 91.54 467.51 83.29 450.23 83.29H415.67V87.02C426.66 87.02 428.43 89.38 428.43 103.32V128.46C428.43 142.4 426.66 144.95 415.67 144.95V148.68H454.74V144.95C443.75 144.95 441.98 142.4 441.98 128.46V121.39H445.32L467.12 148.68H524.26C552.34 148.68 564.51 133.76 564.51 115.89C564.51 98.02 552.34 83.3 524.26 83.3V83.29ZM441.99 115.29V89.18H450.04C458.87 89.18 462.8 95.27 462.8 102.34C462.8 109.41 458.87 115.3 450.04 115.3H441.99V115.29ZM524.85 142.58H523.47C516.4 142.58 515.42 140.81 515.42 131.78V89.17H524.85C545.27 89.17 549 104.09 549 115.68C549 127.27 545.27 142.58 524.85 142.58ZM306.3 122.55L319.85 82.49C323.78 70.91 322.01 67.57 309.44 67.57V63.64H346.36V67.57C333.99 67.57 331.04 70.51 326.14 84.85L303.75 152H301.2L281.17 90.54L260.75 152H258.2L236.4 84.85C231.69 70.52 228.55 67.57 217.16 67.57V63.64H260.75V67.57C249.16 67.57 246.02 70.32 250.15 82.49L263.31 122.55L283.14 63.64H286.87L306.31 122.55H306.3ZM373.06 151.22C351.46 151.22 333.79 135.32 333.79 115.87C333.79 96.42 351.46 80.72 373.06 80.72C394.66 80.72 412.33 96.63 412.33 115.87C412.33 135.11 394.66 151.22 373.06 151.22ZM373.06 86.82C355 86.82 348.71 103.12 348.71 115.88C348.71 128.64 355 144.94 373.06 144.94C391.12 144.94 397.61 128.84 397.61 115.88C397.61 102.92 391.33 86.82 373.06 86.82Z" fill="white"/>
<path d="M613.01 144.75V148.68H568.04V144.75C581.2 144.75 583.55 141.41 583.55 121.77V90.35C583.55 70.71 581.19 67.57 568.04 67.57V63.64H608.69C628.91 63.64 640.11 74.05 640.11 87.99C640.11 101.93 628.91 112.14 608.69 112.14H597.5V121.76C597.5 141.4 599.86 144.74 613.01 144.74V144.75ZM608.69 70.72H597.5V104.89H608.69C619.69 104.89 624.79 97.23 624.79 88C624.79 78.77 619.69 70.72 608.69 70.72ZM775.01 130.22L774.03 133.75C772.26 140.23 770.1 142.59 756.16 142.59H753.41C743.2 142.59 741.43 140.23 741.43 126.29V117.26C756.75 117.26 757.93 118.63 757.93 128.84H761.66V99.58H757.93C757.93 109.79 756.75 111.16 741.43 111.16V89.17H752.23C766.17 89.17 768.33 91.53 770.1 98.01L771.08 101.74H774.22L772.85 83.28H715.12V87.01C726.11 87.01 727.88 89.37 727.88 103.31V128.45C727.88 141.2 726.38 144.42 717.71 144.87C709.47 143.61 703.81 139.12 696.07 130.6L687.04 120.78C699.21 118.62 705.7 110.96 705.7 102.32C705.7 91.52 696.47 83.27 679.19 83.27H644.63V87C655.62 87 657.39 89.36 657.39 103.3V128.44C657.39 142.38 655.62 144.93 644.63 144.93V148.66H683.71V144.93C672.72 144.93 670.95 142.38 670.95 128.44V121.37H674.29L696.09 148.66H776.79L777.97 130.2H775.02L775.01 130.22ZM670.94 115.29V89.18H678.99C687.83 89.18 691.76 95.27 691.76 102.34C691.76 109.41 687.83 115.3 678.99 115.3H670.94V115.29ZM814.87 151.22C807.02 151.22 800.14 147.1 797.2 144.54C796.22 145.52 794.45 148.47 794.06 151.22H790.33V124.13H794.26C795.83 137.09 804.86 144.75 816.45 144.75C822.73 144.75 827.84 141.22 827.84 135.33C827.84 130.23 823.32 126.3 815.27 122.57L804.08 117.27C796.22 113.54 790.33 107.06 790.33 98.42C790.33 88.99 799.17 80.95 811.34 80.95C817.82 80.95 823.32 83.31 826.66 86.05C827.64 85.26 828.62 83.1 829.21 80.75H832.94V103.92H828.82C827.44 94.69 822.34 87.03 811.93 87.03C806.43 87.03 801.32 90.17 801.32 95.08C801.32 99.99 805.44 102.93 814.87 107.25L825.67 112.55C835.1 117.07 838.83 124.33 838.83 130.22C838.83 142.59 828.03 151.23 814.88 151.23L814.87 151.22ZM875.35 151.22C867.49 151.22 860.62 147.1 857.68 144.54C856.7 145.52 854.93 148.47 854.54 151.22H850.81V124.13H854.74C856.31 137.09 865.34 144.75 876.93 144.75C883.21 144.75 888.32 141.22 888.32 135.33C888.32 130.23 883.8 126.3 875.75 122.57L864.56 117.27C856.71 113.54 850.81 107.06 850.81 98.42C850.81 88.99 859.65 80.95 871.82 80.95C878.3 80.95 883.8 83.31 887.14 86.05C888.12 85.26 889.1 83.1 889.69 80.75H893.42V103.92H889.3C887.92 94.69 882.82 87.03 872.41 87.03C866.91 87.03 861.8 90.17 861.8 95.08C861.8 99.99 865.92 102.93 875.35 107.25L886.15 112.55C895.58 117.07 899.31 124.33 899.31 130.22C899.31 142.59 888.51 151.23 875.36 151.23L875.35 151.22Z" fill="white"/>
<path d="M20.79 104.84C20.79 139.24 40.78 168.96 69.77 183.05L28.32 69.48C23.5 80.29 20.8 92.25 20.8 104.85L20.79 104.84ZM166.35 100.45C166.35 89.71 162.49 82.27 159.18 76.48C154.77 69.32 150.65 63.26 150.65 56.1C150.65 48.11 156.71 40.68 165.24 40.68C165.63 40.68 165.99 40.73 166.37 40.75C150.91 26.59 130.31 17.94 107.69 17.94C77.33 17.94 50.62 33.52 35.08 57.11C37.12 57.17 39.04 57.21 40.67 57.21C49.76 57.21 63.83 56.11 63.83 56.11C68.51 55.83 69.07 62.71 64.39 63.27C64.39 63.27 59.68 63.82 54.44 64.1L86.09 158.23L105.11 101.19L91.57 64.09C86.89 63.82 82.46 63.26 82.46 63.26C77.78 62.99 78.33 55.83 83.01 56.1C83.01 56.1 97.36 57.2 105.9 57.2C114.99 57.2 129.06 56.1 129.06 56.1C133.75 55.82 134.3 62.7 129.62 63.26C129.62 63.26 124.9 63.81 119.67 64.09L151.07 157.5L159.74 128.54C163.5 116.52 166.36 107.89 166.36 100.45H166.35ZM109.21 112.44L83.14 188.2C90.92 190.49 99.16 191.74 107.69 191.74C117.81 191.74 127.51 189.99 136.55 186.81C136.32 186.44 136.11 186.04 135.93 185.61L109.22 112.43L109.21 112.44ZM183.94 63.15C184.31 65.92 184.53 68.89 184.53 72.09C184.53 80.91 182.88 90.82 177.92 103.22L151.38 179.97C177.21 164.9 194.59 136.92 194.59 104.86C194.59 89.75 190.73 75.54 183.94 63.17V63.15ZM107.69 3.54999C51.84 3.54999 6.39001 48.99 6.39001 104.85C6.39001 160.71 51.83 206.15 107.69 206.15C163.55 206.15 208.99 160.71 208.99 104.85C208.99 49 163.54 3.54999 107.69 3.54999ZM107.69 201.5C54.4 201.5 11.04 158.14 11.04 104.84C11.04 51.54 54.4 8.19 107.69 8.19C160.98 8.19 204.34 51.55 204.34 104.84C204.34 158.13 160.98 201.5 107.69 201.5Z" fill="white"/>
</svg>
