<svg width="928" height="256" viewBox="0 0 928 256" fill="none" xmlns="http://www.w3.org/2000/svg">
<path fill-rule="evenodd" clip-rule="evenodd" d="M105.418 129.36C100.488 129.32 95.988 126.51 93.798 122.09L89.978 113.51H51.828L48.008 122.09C45.808 126.51 41.318 129.32 36.388 129.36H34.358L50.628 253.35C51.458 255.67 53.008 255.67 53.908 253.35L70.008 213.71L84.078 253.23C84.908 255.55 86.458 255.55 87.358 253.23L106.138 129.48L105.418 129.36Z" fill="url(#paint0_linear_2_33)"/>
<path d="M0.158048 5.72C-0.461952 3.4 0.778048 1.69998 3.24805 1.69998H22.728C24.118 1.69998 25.358 2.93999 25.818 4.01999L40.038 60.14H40.6581L66.318 1.85999C66.778 0.929985 67.708 0 69.098 0H72.188C73.578 0 74.658 0.769985 74.968 1.85999L100.628 60.14H101.248L115.468 4.01999C115.778 2.77999 117.168 1.69998 118.558 1.69998H138.038C140.358 1.69998 141.598 3.4 141.128 5.72L109.748 117.18C109.438 118.57 108.048 119.5 106.658 119.5H104.028C102.788 119.5 101.708 118.73 101.248 117.64L70.798 49.78H70.338L40.188 117.64C39.728 118.57 38.4881 119.5 37.4081 119.5H34.778C33.388 119.5 32.148 118.57 31.688 117.18L0.148047 5.72H0.158048ZM158.458 4.78998C158.458 3.08998 159.848 1.69998 161.548 1.69998H201.588C221.998 1.69998 238.688 18.24 238.688 38.34C238.688 58.44 221.988 75.6 201.738 75.6H184.268V114.56C184.268 116.26 182.878 117.65 181.178 117.65H161.698C159.838 117.65 158.608 116.26 158.608 114.56L158.458 4.79999V4.78998ZM200.188 51.33C207.298 51.33 213.328 45.61 213.328 38.19C213.328 31.23 207.298 25.82 200.188 25.82H184.418V51.17H200.188" fill="#F56F46"/>
<path d="M292.788 4.78998C292.788 3.08998 294.178 1.69998 295.878 1.69998H345.348C365.288 1.69998 381.518 17.78 381.518 37.56C381.518 52.86 371.468 65.08 356.938 70.95L379.658 113C380.898 115.16 379.658 117.79 376.878 117.79H354.768C353.378 117.79 352.448 117.02 352.138 116.4L330.028 72.5H318.588V114.86C318.588 116.56 317.198 117.95 315.498 117.95H295.708C293.848 117.95 292.618 116.56 292.618 114.86L292.768 4.78998H292.788ZM343.338 51.17C350.138 51.17 356.018 44.99 356.018 37.88C356.018 30.77 350.298 25.2 343.338 25.2H318.758V51.17H343.338ZM454.948 0C488.028 0 514.618 26.74 514.618 59.83C514.618 92.92 488.188 119.35 454.948 119.35C421.708 119.35 395.428 92.91 395.428 59.83C395.428 26.75 421.868 0 454.948 0ZM454.948 92.76C473.188 92.76 488.028 77.76 488.028 59.68C488.028 41.6 473.038 26.29 454.948 26.29C436.858 26.29 421.868 41.29 421.868 59.68C422.018 77.92 436.868 92.76 454.948 92.76ZM586.198 0C602.738 0 614.948 5.25999 626.388 15.46C627.778 16.85 627.778 18.71 626.548 20.1L613.718 33.55C612.478 34.79 610.628 34.79 609.548 33.55C603.368 28.14 595.328 25.05 587.128 25.05C568.428 25.05 554.668 40.66 554.668 59.21C554.668 77.76 568.578 92.91 587.288 92.91C595.168 92.91 603.518 90.13 609.398 85.03C610.638 84.1 612.648 84.1 613.728 85.18L626.558 98.94C627.798 100.18 627.478 102.19 626.398 103.42C615.108 114.4 600.888 119.5 586.208 119.5C553.128 119.5 526.378 93.07 526.378 59.98C526.228 26.9 552.968 0 586.208 0H586.198ZM646.338 5.72C646.338 3.56 648.038 1.69998 650.358 1.69998H669.838C671.998 1.69998 673.858 3.56 673.858 5.72V49.31L710.658 3.39999C711.278 2.62999 712.818 1.69998 713.748 1.69998H734.618C737.708 1.69998 739.408 5.25997 737.708 7.87997L698.908 56.42L741.258 111.45C743.118 113.92 741.258 117.63 738.168 117.63H715.288C714.048 117.63 712.658 117.01 712.198 116.39L673.708 64.29V113.76C673.708 115.92 671.848 117.78 669.688 117.78H650.208C647.888 117.78 646.188 115.92 646.188 113.76L646.348 5.69998L646.338 5.72ZM757.948 4.78998C757.948 3.08998 759.338 1.69998 761.038 1.69998H829.678C831.538 1.69998 832.768 3.08998 832.768 4.78998V22.88C832.768 24.58 831.378 25.97 829.678 25.97H783.768V46.53H821.648C823.348 46.53 824.738 47.92 824.738 49.62V67.71C824.738 69.57 823.348 70.8 821.648 70.8H783.768V93.22H829.678C831.538 93.22 832.768 94.61 832.768 96.31V114.4C832.768 116.1 831.378 117.49 829.678 117.49H761.038C759.178 117.49 757.948 116.1 757.948 114.4V4.79999V4.78998ZM870.028 25.97H846.218C844.358 25.97 843.128 24.58 843.128 22.88V4.78998C843.128 3.08998 844.518 1.69998 846.218 1.69998H919.808C921.668 1.69998 922.898 3.08998 922.898 4.78998V22.88C922.898 24.58 921.508 25.97 919.808 25.97H896.158V114.55C896.158 116.25 894.768 117.64 893.068 117.64H872.968C871.268 117.64 869.878 116.25 869.878 114.55L870.038 25.97H870.028Z" fill="white"/>
<path d="M137.288 202.98C144.398 202.98 149.348 199.27 149.348 192.93V192.78C149.348 187.21 145.638 184.59 138.528 182.89C132.038 181.34 130.488 180.26 130.488 177.63V177.48C130.488 175.32 132.498 173.46 136.058 173.46C138.688 173.46 141.158 174.39 143.788 176.09C144.248 176.4 144.718 176.55 145.338 176.55C146.888 176.55 148.118 175.31 148.118 173.77C148.118 172.69 147.498 171.76 146.878 171.45C143.788 169.44 140.388 168.36 136.208 168.36C129.558 168.36 124.618 172.38 124.618 178.1V178.25C124.618 184.43 128.638 186.6 135.898 188.3C142.238 189.69 143.478 191.08 143.478 193.4V193.55C143.478 196.02 141.158 197.72 137.448 197.72C133.738 197.72 130.798 196.48 128.018 194.32C127.708 194.01 127.088 193.86 126.318 193.86C124.768 193.86 123.538 195.1 123.538 196.64C123.538 197.57 123.998 198.5 124.618 198.96C128.328 201.59 132.658 202.98 137.298 202.98H137.288ZM178.248 179.63C178.248 177.93 176.858 176.69 175.308 176.69C173.608 176.69 172.368 177.93 172.368 179.63V191.38C172.368 195.4 170.048 197.72 166.648 197.72C163.248 197.72 161.238 195.56 161.238 191.54V179.79C161.238 178.09 159.998 176.85 158.298 176.85C156.748 176.85 155.358 178.09 155.358 179.79V193.39C155.358 199.26 158.758 203.13 164.478 203.13C168.498 203.13 170.818 201.12 172.358 198.65V199.89C172.358 201.59 173.748 202.83 175.298 202.83C176.998 202.83 178.238 201.59 178.238 199.89V179.64L178.248 179.63ZM185.518 207.61V179.78C185.518 178.08 186.758 176.84 188.458 176.84C190.158 176.84 191.398 178.08 191.398 179.78V181.33C193.258 178.7 195.878 176.54 200.058 176.54C206.088 176.54 211.808 181.33 211.808 189.68V189.83C211.808 198.33 206.088 202.97 200.058 202.97C195.888 202.97 193.098 200.81 191.398 198.49V207.46C191.398 209.16 190.158 210.4 188.458 210.4C186.908 210.4 185.518 209.16 185.518 207.62V207.61ZM198.658 197.88C202.678 197.88 205.928 194.79 205.928 189.69V189.54C205.928 184.59 202.528 181.35 198.658 181.35C194.788 181.35 191.238 184.6 191.238 189.54V189.69C191.238 194.64 194.798 197.88 198.658 197.88ZM222.308 187.98H235.448C235.138 184.27 232.818 181.33 228.958 181.33C225.398 181.33 222.778 183.96 222.308 187.98ZM238.698 199.73C236.378 201.74 233.438 203.13 229.578 203.13C222.158 203.13 216.438 197.72 216.438 189.99V189.84C216.438 182.57 221.538 176.55 228.808 176.55C236.848 176.55 240.868 183.2 240.868 189.07C240.868 190.77 239.628 191.85 238.088 191.85H222.168C222.788 196.02 225.728 198.34 229.438 198.34C231.908 198.34 233.768 197.41 235.468 196.18C235.928 195.87 236.238 195.72 237.018 195.72C238.258 195.72 239.338 196.8 239.338 198.04C239.488 198.66 239.188 199.28 238.718 199.74L238.698 199.73ZM247.038 199.88C247.038 201.58 248.278 202.82 249.978 202.82C251.678 202.82 252.918 201.58 252.918 199.88V192.3C252.918 186.27 255.698 183.02 259.878 182.41C261.118 182.1 262.198 181.17 262.198 179.63C262.198 177.93 261.118 176.69 259.258 176.69C256.628 176.69 254.158 179.16 252.918 182.26V179.63C252.918 177.93 251.678 176.69 249.978 176.69C248.278 176.69 247.038 177.93 247.038 179.63V199.88ZM266.828 170.51C266.828 172.21 268.218 173.45 270.228 173.45C272.088 173.45 273.628 172.37 273.628 170.51V170.2C273.628 168.5 272.238 167.42 270.228 167.42C268.368 167.42 266.828 168.5 266.828 170.2V170.51ZM267.298 199.88C267.298 201.58 268.538 202.82 270.238 202.82C271.938 202.82 273.178 201.58 273.178 199.88V179.78C273.178 178.08 271.938 176.84 270.238 176.84C268.538 176.84 267.298 178.08 267.298 179.78V199.88ZM292.798 203.13C285.068 203.13 279.348 197.25 279.348 189.99V189.84C279.348 182.57 285.068 176.55 292.948 176.55C300.828 176.55 306.548 182.42 306.548 189.69V189.84C306.548 197.11 300.678 203.14 292.788 203.14L292.798 203.13ZM292.958 197.88C297.748 197.88 300.688 194.17 300.688 189.84V189.69C300.688 185.21 297.438 181.5 292.808 181.5C288.178 181.5 285.078 185.21 285.078 189.54V189.69C285.228 194.17 288.478 197.88 292.958 197.88ZM312.438 199.88C312.438 201.58 313.678 202.82 315.378 202.82C317.078 202.82 318.318 201.58 318.318 199.88V192.3C318.318 186.27 321.098 183.02 325.278 182.41C326.518 182.1 327.598 181.17 327.598 179.63C327.598 177.93 326.518 176.69 324.658 176.69C322.028 176.69 319.558 179.16 318.318 182.26V179.63C318.318 177.93 317.078 176.69 315.378 176.69C313.678 176.69 312.438 177.93 312.438 179.63V199.88ZM355.408 200.5C356.028 202.05 357.108 202.97 358.498 202.97H359.118C360.508 202.97 361.748 202.04 362.208 200.5L369.788 178.39L377.358 200.5C377.818 202.05 378.908 202.97 380.448 202.97H381.068C382.458 202.97 383.698 202.04 384.158 200.5L394.208 172.52C394.358 172.21 394.518 171.75 394.518 171.28C394.518 169.73 393.128 168.5 391.578 168.5C390.188 168.5 389.108 169.43 388.638 170.66L380.908 193.85L373.328 170.82C372.868 169.43 371.778 168.5 370.388 168.5H369.928C368.378 168.5 367.458 169.43 366.988 170.82L359.408 193.85L351.678 170.66C351.368 169.42 350.128 168.5 348.738 168.5C347.038 168.5 345.648 169.74 345.648 171.44C345.648 171.75 345.798 172.21 345.958 172.52L355.388 200.5H355.408ZM409.518 203.13C401.788 203.13 396.068 197.25 396.068 189.99V189.84C396.068 182.57 401.788 176.55 409.668 176.55C417.548 176.55 423.268 182.42 423.268 189.69V189.84C423.118 197.11 417.398 203.14 409.508 203.14L409.518 203.13ZM409.518 197.88C414.308 197.88 417.248 194.17 417.248 189.84V189.69C417.248 185.21 413.998 181.5 409.368 181.5C404.738 181.5 401.638 185.21 401.638 189.54V189.69C401.788 194.17 405.038 198.04 409.518 197.88ZM428.998 199.88C428.998 201.58 430.238 202.82 431.938 202.82C433.638 202.82 434.878 201.58 434.878 199.88V192.3C434.878 186.27 437.658 183.02 441.838 182.41C443.078 182.1 444.158 181.17 444.158 179.63C444.158 177.93 443.078 176.69 441.218 176.69C438.588 176.69 436.118 179.16 434.878 182.26V179.63C434.878 177.93 433.638 176.69 431.938 176.69C430.238 176.69 428.998 177.93 428.998 179.63V199.88ZM473.358 169.89V199.88C473.358 201.58 472.118 202.82 470.418 202.82C468.718 202.82 467.478 201.58 467.478 199.88V198.33C465.618 200.96 462.998 203.12 458.818 203.12C452.788 203.12 447.068 198.33 447.068 189.98V189.83C447.068 181.33 452.788 176.69 458.818 176.69C462.988 176.69 465.618 178.7 467.478 181.17V170.19C467.478 168.49 468.718 167.25 470.418 167.25C471.968 167.1 473.358 168.33 473.358 169.88V169.89ZM460.218 181.49C456.198 181.49 452.948 184.58 452.948 189.68V189.83C452.948 194.78 456.348 198.02 460.218 198.02C464.088 198.02 467.638 194.77 467.638 189.83V189.68C467.488 184.73 464.078 181.49 460.218 181.49ZM481.248 199.73V171.59C481.248 169.89 482.488 168.65 484.188 168.65H494.548C502.428 168.65 507.378 173.13 507.378 179.93V180.08C507.378 187.65 501.348 191.67 493.928 191.67H487.278V199.86C487.278 201.56 486.038 202.8 484.338 202.8C482.638 202.65 481.248 201.41 481.248 199.71V199.73ZM487.278 186.28H494.238C498.718 186.28 501.508 183.81 501.508 180.25V180.1C501.508 176.08 498.728 174.07 494.238 174.07H487.278V186.28ZM512.778 199.88C512.778 201.58 514.018 202.82 515.718 202.82C517.418 202.82 518.658 201.58 518.658 199.88V192.3C518.658 186.27 521.438 183.02 525.618 182.41C526.858 182.1 527.938 181.17 527.938 179.63C527.938 177.93 526.858 176.69 524.998 176.69C522.368 176.69 519.898 179.16 518.658 182.26V179.63C518.658 177.93 517.418 176.69 515.718 176.69C514.018 176.69 512.778 177.93 512.778 179.63V199.88ZM536.278 187.98H549.418C549.108 184.27 546.788 181.33 542.928 181.33C539.368 181.33 536.748 183.96 536.278 187.98ZM552.668 199.73C550.348 201.74 547.408 203.13 543.548 203.13C536.128 203.13 530.408 197.72 530.408 189.99V189.84C530.408 182.57 535.508 176.55 542.778 176.55C550.818 176.55 554.838 183.2 554.838 189.07C554.838 190.77 553.598 191.85 552.058 191.85H536.138C536.758 196.02 539.698 198.34 543.408 198.34C545.878 198.34 547.738 197.41 549.438 196.18C549.898 195.87 550.208 195.72 550.988 195.72C552.228 195.72 553.308 196.8 553.308 198.04C553.458 198.66 553.158 199.28 552.688 199.74L552.668 199.73ZM569.828 202.98C575.088 202.98 579.258 200.35 579.258 194.94V194.79C579.258 190.15 575.088 188.45 571.378 187.37C568.438 186.44 565.658 185.67 565.658 183.81V183.66C565.658 182.27 566.898 181.19 569.218 181.19C571.078 181.19 573.088 181.81 575.248 182.89C575.558 183.04 575.868 183.2 576.328 183.2C577.718 183.2 578.798 182.12 578.798 180.88C578.798 179.8 578.178 179.02 577.408 178.72C574.938 177.48 572.148 176.71 569.368 176.71C564.268 176.71 560.248 179.65 560.248 184.44V184.59C560.248 189.54 564.418 190.93 568.128 192.01C571.068 192.94 573.848 193.56 573.848 195.57V195.72C573.848 197.42 572.458 198.5 569.828 198.5C567.508 198.5 564.878 197.73 562.558 196.03C562.248 195.88 561.788 195.72 561.318 195.72C559.928 195.72 558.998 196.8 558.998 198.04C558.998 198.97 559.458 199.74 560.078 200.05C563.018 201.91 566.568 202.99 569.818 202.99L569.828 202.98ZM593.478 202.98C598.738 202.98 602.908 200.35 602.908 194.94V194.79C602.908 190.15 598.738 188.45 595.028 187.37C592.088 186.44 589.308 185.67 589.308 183.81V183.66C589.308 182.27 590.548 181.19 592.868 181.19C594.728 181.19 596.738 181.81 598.898 182.89C599.208 183.04 599.518 183.2 599.978 183.2C601.368 183.2 602.448 182.12 602.448 180.88C602.448 179.8 601.828 179.02 601.058 178.72C598.588 177.48 595.798 176.71 593.018 176.71C587.918 176.71 583.898 179.65 583.898 184.44V184.59C583.898 189.54 588.068 190.93 591.778 192.01C594.718 192.94 597.498 193.56 597.498 195.57V195.72C597.498 197.42 596.108 198.5 593.478 198.5C591.158 198.5 588.528 197.73 586.208 196.03C585.898 195.88 585.438 195.72 584.968 195.72C583.578 195.72 582.648 196.8 582.648 198.04C582.648 198.97 583.108 199.74 583.728 200.05C586.668 201.91 590.218 202.99 593.468 202.99L593.478 202.98ZM623.938 199.73V171.59C623.938 169.89 625.168 168.65 626.878 168.65H637.238C645.118 168.65 650.068 173.13 650.068 179.93V180.08C650.068 187.65 644.038 191.67 636.618 191.67H629.968V199.86C629.968 201.56 628.728 202.8 627.028 202.8C625.328 202.65 623.938 201.41 623.938 199.71V199.73ZM629.968 186.28H636.918C641.398 186.28 644.188 183.81 644.188 180.25V180.1C644.188 176.08 641.398 174.07 636.918 174.07H629.968V186.28ZM659.648 187.98H672.788C672.478 184.27 670.168 181.33 666.298 181.33C662.748 181.33 660.268 183.96 659.648 187.98ZM676.188 199.73C673.868 201.74 670.928 203.13 667.068 203.13C659.648 203.13 653.928 197.72 653.928 189.99V189.84C653.928 182.57 659.028 176.55 666.298 176.55C674.338 176.55 678.348 183.2 678.348 189.07C678.348 190.77 677.108 191.85 675.568 191.85H659.648C660.268 196.02 663.198 198.34 666.908 198.34C669.378 198.34 671.238 197.41 672.938 196.18C673.398 195.87 673.708 195.72 674.488 195.72C675.728 195.72 676.808 196.8 676.808 198.04C676.968 198.66 676.648 199.28 676.188 199.74V199.73ZM684.378 199.88C684.378 201.58 685.618 202.82 687.318 202.82C689.018 202.82 690.258 201.58 690.258 199.88V192.3C690.258 186.27 693.048 183.02 697.218 182.41C698.458 182.1 699.538 181.17 699.538 179.63C699.538 177.93 698.458 176.69 696.598 176.69C693.968 176.69 691.498 179.16 690.258 182.26V179.63C690.258 177.93 689.018 176.69 687.318 176.69C685.618 176.69 684.378 177.93 684.378 179.63V199.88ZM705.708 199.88C705.708 201.43 706.948 202.82 708.648 202.82C710.348 202.82 711.588 201.58 711.588 199.88V182.1H716.068C717.458 182.1 718.538 181.02 718.538 179.63C718.538 178.24 717.458 177.16 716.068 177.16H711.588V175.77C711.588 173.14 712.668 171.9 714.988 171.9C715.298 171.9 715.918 171.9 716.228 172.05C717.618 172.05 718.698 170.97 718.698 169.58C718.698 168.34 717.778 167.26 716.688 167.11C715.918 166.96 714.828 166.8 713.748 166.8C711.278 166.8 709.418 167.42 708.028 168.81C706.638 170.2 706.028 172.21 706.028 175.15V177.01H704.938C703.548 177.01 702.468 178.09 702.468 179.48C702.468 180.87 703.558 181.95 704.938 181.95H706.028L705.718 199.88H705.708ZM734.158 203.13C726.428 203.13 720.708 197.25 720.708 189.99V189.84C720.708 182.57 726.428 176.55 734.308 176.55C742.188 176.55 747.908 182.42 747.908 189.69V189.84C747.748 197.11 742.028 203.14 734.148 203.14L734.158 203.13ZM734.158 198.03C738.948 198.03 741.888 194.32 741.888 189.99V189.84C741.888 185.36 738.638 181.65 733.998 181.65C729.358 181.65 726.268 185.36 726.268 189.69V189.84C726.428 194.17 729.668 198.03 734.148 198.03H734.158ZM753.638 199.88C753.638 201.58 754.878 202.82 756.578 202.82C758.278 202.82 759.518 201.58 759.518 199.88V192.3C759.518 186.27 762.308 183.02 766.478 182.41C767.718 182.1 768.798 181.17 768.798 179.63C768.798 177.93 767.718 176.69 765.858 176.69C763.228 176.69 760.758 179.16 759.518 182.26V179.63C759.518 177.93 758.278 176.69 756.578 176.69C754.878 176.69 753.638 177.93 753.638 179.63V199.88ZM773.578 199.88C773.578 201.58 774.818 202.82 776.518 202.82C778.218 202.82 779.458 201.58 779.458 199.88V188.13C779.458 184.26 781.618 181.79 784.868 181.79C788.118 181.79 789.968 183.95 789.968 187.97V199.87C789.968 201.57 791.208 202.81 792.908 202.81C794.458 202.81 795.848 201.57 795.848 199.87V188.12C795.848 183.95 798.168 181.78 801.268 181.78C804.368 181.78 806.368 183.94 806.368 187.96V199.71C806.368 201.41 807.608 202.65 809.308 202.65C811.008 202.65 812.248 201.41 812.248 199.71V186.11C812.248 179.93 808.848 176.37 803.278 176.37C799.418 176.37 796.788 178.23 794.618 180.85C793.228 178.22 790.598 176.37 787.048 176.37C783.178 176.37 780.868 178.53 779.318 180.7V179.46C779.318 177.76 778.078 176.52 776.378 176.52C774.678 176.52 773.438 177.76 773.438 179.46L773.588 199.87L773.578 199.88ZM826.748 202.98C821.958 202.98 817.788 200.2 817.788 195.1V194.95C817.788 189.38 822.118 186.76 828.298 186.76C831.078 186.76 833.248 187.22 835.098 187.84V187.22C835.098 183.66 832.928 181.65 828.758 181.65C826.598 181.65 824.738 181.96 823.188 182.73C822.878 182.88 822.568 182.88 822.268 182.88C820.878 182.88 819.798 181.8 819.798 180.41C819.798 179.33 820.568 178.4 821.338 178.09C823.808 177.16 826.288 176.54 829.528 176.54C833.398 176.54 836.178 177.62 838.028 179.32C839.888 181.18 840.818 183.8 840.818 187.2V199.72C840.818 201.27 839.578 202.5 838.028 202.5C836.328 202.5 835.248 201.42 835.248 200.03V199.1C833.238 201.42 830.608 202.97 826.738 202.97L826.748 202.98ZM828.458 198.8C832.318 198.8 835.258 196.64 835.258 193.39V191.69C833.708 191.07 831.858 190.61 829.538 190.61C825.828 190.61 823.508 192.16 823.508 194.78V194.93C823.348 197.4 825.668 198.79 828.458 198.79V198.8ZM847.778 199.88C847.778 201.58 849.018 202.82 850.718 202.82C852.418 202.82 853.658 201.58 853.658 199.88V188.13C853.658 184.11 855.978 181.79 859.378 181.79C862.778 181.79 864.788 184.11 864.788 187.97V199.72C864.788 201.42 866.028 202.66 867.728 202.66C869.428 202.66 870.668 201.42 870.668 199.72V186.12C870.668 180.25 867.268 176.38 861.548 176.38C857.528 176.38 855.208 178.39 853.668 180.86V179.62C853.668 177.92 852.428 176.68 850.728 176.68C849.028 176.68 847.788 177.92 847.788 179.62V199.87L847.778 199.88ZM889.358 203.13C893.528 203.13 896.318 201.74 898.638 199.57C899.098 199.11 899.408 198.49 899.408 197.71C899.408 196.32 898.328 195.08 896.938 195.08C896.318 195.08 895.698 195.39 895.388 195.7C893.848 197.09 891.988 198.02 889.668 198.02C885.188 198.02 882.088 194.46 882.088 189.83V189.68C882.088 185.2 885.178 181.64 889.508 181.64C891.828 181.64 893.528 182.57 894.918 183.8C895.228 184.11 895.998 184.42 896.618 184.42C898.168 184.42 899.248 183.34 899.248 181.79C899.248 180.86 898.788 180.09 898.328 179.78C896.158 177.92 893.378 176.53 889.358 176.53C881.628 176.53 876.068 182.56 876.068 189.82V189.97C876.218 197.08 881.788 203.11 889.358 203.11V203.13ZM908.848 187.98H921.988C921.678 184.27 919.368 181.33 915.498 181.33C911.948 181.33 909.318 183.96 908.848 187.98ZM925.228 199.73C922.908 201.74 919.978 203.13 916.108 203.13C908.688 203.13 902.968 197.72 902.968 189.99V189.84C902.968 182.57 908.068 176.55 915.338 176.55C923.378 176.55 927.398 183.2 927.398 189.07C927.398 190.77 926.158 191.85 924.608 191.85H908.688C909.308 196.02 912.238 198.34 915.948 198.34C918.418 198.34 920.278 197.41 921.978 196.18C922.448 195.87 922.748 195.72 923.528 195.72C924.768 195.72 925.848 196.8 925.848 198.04C926.008 198.66 925.688 199.28 925.228 199.74V199.73Z" fill="white"/>
<path fill-rule="evenodd" clip-rule="evenodd" d="M88.428 110.04H53.498L48.128 122.08C46.308 125.7 42.918 128.27 38.948 129.05L51.228 205.53C52.058 206.9 53.608 206.9 54.508 205.53L70.248 181.57L84.678 205.41C85.628 206.84 87.058 206.84 87.958 205.41L101.908 128.81C98.378 127.8 95.438 125.35 93.798 122.07L88.428 110.03V110.04Z" fill="url(#paint1_linear_2_33)"/>
<path fill-rule="evenodd" clip-rule="evenodd" d="M93.798 122.08L70.848 70.81L48.018 122.08C47.258 123.55 46.248 124.88 45.038 126.01L54.518 176.86C54.998 177.52 56.308 177.75 57.258 176.86L69.958 159.99L82.718 176.68C83.488 177.75 84.928 177.51 85.458 176.68L95.948 125.29C95.118 124.3 94.398 123.22 93.798 122.07V122.08Z" fill="url(#paint2_linear_2_33)"/>
<defs>
<linearGradient id="paint0_linear_2_33" x1="69.348" y1="256.05" x2="70.358" y2="113.76" gradientUnits="userSpaceOnUse">
<stop stop-color="#DD5F29"/>
<stop offset="0.26" stop-color="#F26B32"/>
<stop offset="1" stop-color="#FAC932"/>
</linearGradient>
<linearGradient id="paint1_linear_2_33" x1="69.948" y1="207.29" x2="70.548" y2="110.24" gradientUnits="userSpaceOnUse">
<stop stop-color="#DD5F29"/>
<stop offset="0.26" stop-color="#F26B32"/>
<stop offset="1" stop-color="#FAC932"/>
</linearGradient>
<linearGradient id="paint2_linear_2_33" x1="70.078" y1="178.2" x2="70.918" y2="71.08" gradientUnits="userSpaceOnUse">
<stop stop-color="#DD5F29"/>
<stop offset="0.26" stop-color="#F26B32"/>
<stop offset="1" stop-color="#FAC932"/>
</linearGradient>
</defs>
</svg>
