<svg width="928" height="418" viewBox="0 0 928 418" fill="none" xmlns="http://www.w3.org/2000/svg">
<path d="M311.19 305.91C277.49 305.91 251.57 295.53 234.17 275.04C219.07 257.25 211.07 232.26 211.07 202.76C211.07 173.26 219.12 149.88 234.33 132.29C251.88 111.99 277.75 101.68 311.19 101.68C374.43 101.68 410.81 139.7 411 205.97C411.07 235.53 401.37 261.59 383.66 279.36C366.08 296.98 341.71 305.91 311.21 305.91H311.19ZM311.56 145.98C291.79 145.98 270.27 161.67 269.19 205.73C269.81 240.95 284.73 260.54 311.21 260.83H311.76C326.9 260.83 338.15 253.87 345.2 240.12C358.14 214.91 352.16 175.35 341.86 161C335.19 151.72 323.58 145.95 311.56 145.95V145.97V145.98Z" fill="url(#paint0_linear_2_51)"/>
<path d="M311.21 102.58C379.38 102.58 409.93 145.8 410.1 205.97C410.23 255.36 382.28 304.99 311.21 304.99C240.14 304.99 212.03 257.6 212.03 202.76C212.03 147.92 240.38 102.6 311.21 102.6M311.76 261.76C362.53 261.76 359.09 183.45 342.59 160.48C335.77 151 323.87 145.06 311.56 145.06C291.02 145.06 269.35 161.58 268.27 205.71C268.97 245.56 287.54 261.49 311.19 261.75H311.76M311.21 100.74C277.49 100.74 251.4 111.14 233.65 131.66C218.29 149.43 210.17 174.01 210.17 202.73C210.17 231.45 218.24 257.67 233.47 275.6C251.05 296.31 277.2 306.8 311.19 306.8C341.95 306.8 366.53 297.78 384.3 279.97C402.2 262.04 411.99 235.74 411.92 205.94C411.74 139.08 375.02 100.73 311.19 100.73H311.21V100.74ZM311.76 259.92H311.23C285.32 259.63 270.73 240.37 270.13 205.68C271.2 162.35 292.23 146.9 311.58 146.9C323.3 146.9 334.62 152.52 341.13 161.56C351.33 175.73 357.19 214.81 344.4 239.72C337.53 253.13 326.56 259.93 311.79 259.93L311.77 259.91L311.76 259.92Z" fill="white"/>
<path d="M907.85 345.28C868.22 338.68 828.23 306.71 828.23 250.19V154.63H799.47V108.38H828.23V54.75H886.73V108.38H923.42V154.63H886.73V256C886.95 278.27 902.33 295.17 925.02 298.04L926.18 298.19L908.6 345.39L907.85 345.26V345.28Z" fill="url(#paint1_linear_2_51)"/>
<path d="M885.84 55.69V109.32H922.53V153.73H885.84V256.02C886.06 278.42 901.33 296 924.94 298.98L908.02 344.38C867.54 337.64 829.18 305.04 829.18 250.21V153.73H800.42V109.32H829.18V55.69H885.85M887.68 53.85H827.34V107.48H798.58V155.57H827.34V250.22C827.34 307.27 867.71 339.54 907.73 346.21L909.22 346.47L909.75 345.06L926.67 299.66L927.48 297.49L925.18 297.2C902.97 294.39 887.9 277.85 887.7 256.04V155.61H924.39V107.52H887.7V53.89L887.68 53.87V53.85Z" fill="white"/>
<path d="M555.42 305.23L546.18 283.02C525.88 297.52 504.43 305.16 484.09 305.16C448.13 305.16 421.03 280.65 421.03 248.13C421.03 184.65 481.76 175.81 541.47 175.72C541.47 174.75 541.51 173.74 541.53 172.71C541.68 165.75 541.86 157.86 538.04 152.74C537.85 152.48 537.64 152.23 537.42 152.01C534.33 148.57 526.93 143.01 510.78 143.01C495.92 143.01 477.56 147.99 457.7 157.38L456.89 157.77L436.2 116.28L437.19 115.93C464.71 106.36 493.87 101.08 519.3 101.08C568.86 101.08 597.65 120.19 600.39 154.86C600.7 157.84 600.85 160.41 600.85 162.94V239.84C600.85 250.39 603.81 265.09 607.24 282.1C608.65 289.16 610.12 296.45 611.54 304.17L611.74 305.25H555.42V305.23ZM541.9 218.3C525.99 218.3 510.79 218.7 499.22 222.64C484.54 229.82 481.01 239.99 482.65 247.08C484.54 255.26 492.72 260.73 503.01 260.73C515.47 260.73 529.27 253.03 541.91 239.03V218.29V218.31L541.9 218.3Z" fill="url(#paint2_linear_2_51)"/>
<path d="M519.28 101.97C561.61 101.97 596.43 116.61 599.47 154.91C599.75 157.48 599.93 160.13 599.93 162.92V239.82C599.93 254.78 605.75 277.63 610.64 304.31H556.05L546.61 281.6C524.65 297.53 503.04 304.26 484.12 304.26C448.16 304.26 421.98 279.91 421.98 248.15C421.98 184.39 484.07 176.66 542.42 176.66C542.42 168.72 543.56 158.6 538.8 152.19C538.78 152.15 538.74 152.12 538.73 152.08C538.51 151.8 538.27 151.53 538.03 151.25C533.34 146.03 524.3 142.06 510.8 142.06C497.3 142.06 479.58 145.99 457.31 156.52L437.5 116.78C463.78 107.63 492.99 101.99 519.32 101.99M503.02 261.65C514.08 261.65 528.25 255.64 542.84 239.4V217.39C528.16 217.39 511.33 217.57 498.94 221.78C470.52 235.67 480.03 261.65 503.04 261.65M519.28 100.14C493.76 100.14 464.49 105.43 436.87 115.04L434.9 115.72L435.84 117.59L455.65 157.33L456.46 158.95L458.1 158.18C477.85 148.83 496.08 143.9 510.8 143.9C522.34 143.9 531.76 147.02 536.65 152.48L536.71 152.55C536.89 152.75 537.08 152.95 537.24 153.17L537.33 153.28C540.95 158.15 540.78 165.87 540.62 172.66C540.62 173.38 540.58 174.09 540.58 174.77C480.7 174.95 420.14 184.12 420.14 248.1C420.14 281.14 447.65 306.05 484.12 306.05C504.33 306.05 525.61 298.57 545.8 284.39L554.36 304.97L554.84 306.11H612.85L612.45 303.94C611.04 296.22 609.57 288.93 608.15 281.85C604.73 264.87 601.77 250.23 601.77 239.77V162.87C601.77 160.3 601.62 157.69 601.31 154.66C599.84 136.03 591 121.81 575.05 112.44C561.09 104.25 542.33 100.07 519.28 100.07V100.11V100.14ZM499.62 223.48C510.83 219.69 525.53 219.25 540.98 219.22V238.68C528.6 252.31 515.13 259.81 503 259.81C493.15 259.81 485.32 254.61 483.54 246.87C481.17 236.62 490.26 228.07 499.62 223.48Z" fill="white"/>
<path d="M704.75 306.02C676.8 306.02 646.41 299.22 623.46 287.83L622.71 287.46L640.48 242.04L641.44 242.7C660.73 255.91 682.62 263.48 701.45 263.48C718.19 263.48 728.61 257.38 728.66 247.57C728.72 235.63 711.15 230.37 694.15 225.3C688.95 223.74 683.55 222.14 678.73 220.36C643.69 207.39 627.5 187.82 627.74 158.79C628.05 120.9 656.61 100.03 708.13 100.03C730.75 100.03 757.08 104.2 782.29 111.81L783.26 112.1L765.91 154.09L765.05 153.7C746.77 145.38 729.75 140.99 715.86 140.99C698.62 140.99 687.93 147.83 687.93 158.83C687.93 168.7 702.23 173.24 720.34 178.99C749.08 188.12 788.43 200.62 788.8 244.86C788.93 260.61 783.91 273.71 773.9 283.79C759.64 298.16 735.09 306.06 704.76 306.06L704.74 306.02H704.75Z" fill="url(#paint3_linear_2_51)"/>
<path d="M708.13 100.93C732.35 100.93 758.71 105.65 782.01 112.65L765.42 152.82C745.59 143.8 728.78 140.01 715.86 140.01C697.49 140.01 687.01 147.65 687.01 158.77C687.01 186.2 787.31 174.08 787.87 244.8C788.22 288.35 748.71 305.09 704.75 305.09C676.49 305.09 646.39 298.16 623.87 286.99L640.92 243.42C662.2 257.99 684.52 264.37 701.44 264.37C718.36 264.37 729.52 258.2 729.57 247.54C729.66 231.11 699.75 227.13 679.04 219.46C649.15 208.38 628.38 191.02 628.64 158.75C629.01 115.7 665.19 100.89 708.11 100.89M708.13 99.09C656.02 99.09 627.14 120.28 626.82 158.77C626.56 188.24 642.97 208.09 678.41 221.21C683.26 223.01 688.66 224.61 693.88 226.17C710.55 231.15 727.8 236.29 727.74 247.56C727.68 256.82 717.62 262.55 701.45 262.55C682.78 262.55 661.1 255.03 641.95 241.92L640.04 240.62L639.19 242.77L622.14 286.34L621.53 287.9L623.04 288.65C646.12 300.1 676.67 306.93 704.73 306.93C735.3 306.93 760.09 298.92 774.52 284.38C784.7 274.11 789.81 260.79 789.68 244.78C789.33 199.87 749.59 187.27 720.59 178.04C702.84 172.4 688.82 167.95 688.82 158.77C688.82 148.33 699.16 141.85 715.83 141.85C729.59 141.85 746.46 146.22 764.63 154.49L766.36 155.28L767.09 153.52L783.68 113.35L784.45 111.48L782.5 110.89C757.22 103.28 730.8 99.08 708.08 99.08L708.1 99.1L708.13 99.09ZM311.21 102.58C379.38 102.58 409.93 145.8 410.1 205.97C410.23 255.36 382.28 304.99 311.21 304.99C240.14 304.99 212.03 257.6 212.03 202.76C212.03 147.92 240.38 102.6 311.21 102.6M311.76 261.76C362.53 261.76 359.09 183.45 342.59 160.48C335.77 151 323.87 145.06 311.56 145.06C291.02 145.06 269.35 161.58 268.27 205.71C268.97 245.56 287.54 261.49 311.19 261.75H311.76M311.21 100.74C277.49 100.74 251.4 111.14 233.65 131.66C218.29 149.43 210.17 174.01 210.17 202.73C210.17 231.45 218.24 257.67 233.47 275.6C251.05 296.31 277.2 306.8 311.19 306.8C341.95 306.8 366.53 297.78 384.3 279.97C402.2 262.04 411.99 235.74 411.92 205.94C411.74 139.08 375.02 100.73 311.19 100.73H311.21V100.74ZM311.76 259.92H311.23C285.32 259.63 270.73 240.37 270.13 205.68C271.2 162.35 292.23 146.9 311.58 146.9C323.3 146.9 334.62 152.52 341.13 161.56C351.33 175.73 357.19 214.81 344.4 239.72C337.53 253.13 326.56 259.93 311.79 259.93L311.77 259.91L311.76 259.92ZM885.84 55.69V109.32H922.53V153.73H885.84V256.02C886.06 278.42 901.33 296 924.94 298.98L908.02 344.38C867.54 337.64 829.18 305.04 829.18 250.21V153.73H800.42V109.32H829.18V55.69H885.85M887.68 53.85H827.34V107.48H798.58V155.57H827.34V250.22C827.34 307.27 867.71 339.54 907.73 346.21L909.22 346.47L909.75 345.06L926.67 299.66L927.48 297.49L925.18 297.2C902.97 294.39 887.9 277.85 887.7 256.04V155.61H924.39V107.52H887.7V53.89L887.68 53.87V53.85ZM519.28 101.97C561.61 101.97 596.43 116.61 599.47 154.91C599.75 157.48 599.93 160.13 599.93 162.92V239.82C599.93 254.78 605.75 277.63 610.64 304.31H556.05L546.61 281.6C524.65 297.53 503.04 304.26 484.12 304.26C448.16 304.26 421.98 279.91 421.98 248.15C421.98 184.39 484.07 176.66 542.42 176.66C542.42 168.72 543.56 158.6 538.8 152.19C538.78 152.15 538.74 152.12 538.73 152.08C538.51 151.8 538.27 151.53 538.03 151.25C533.34 146.03 524.3 142.06 510.8 142.06C497.3 142.06 479.58 145.99 457.31 156.52L437.5 116.78C463.78 107.63 492.99 101.99 519.32 101.99M503.02 261.65C514.08 261.65 528.25 255.64 542.84 239.4V217.39C528.16 217.39 511.33 217.57 498.94 221.78C470.52 235.67 480.03 261.65 503.04 261.65M519.28 100.14C493.76 100.14 464.49 105.43 436.87 115.04L434.9 115.72L435.84 117.59L455.65 157.33L456.46 158.95L458.1 158.18C477.85 148.83 496.08 143.9 510.8 143.9C522.34 143.9 531.76 147.02 536.65 152.48L536.71 152.55C536.89 152.75 537.08 152.95 537.24 153.17L537.33 153.28C540.95 158.15 540.78 165.87 540.62 172.66C540.62 173.38 540.58 174.09 540.58 174.77C480.7 174.95 420.14 184.12 420.14 248.1C420.14 281.14 447.65 306.05 484.12 306.05C504.33 306.05 525.61 298.57 545.8 284.39L554.36 304.97L554.84 306.11H612.85L612.45 303.94C611.04 296.22 609.57 288.93 608.15 281.85C604.73 264.87 601.77 250.23 601.77 239.77V162.87C601.77 160.3 601.62 157.69 601.31 154.66C599.84 136.03 591 121.81 575.05 112.44C561.09 104.25 542.33 100.07 519.28 100.07V100.11V100.14ZM499.62 223.48C510.83 219.69 525.53 219.25 540.98 219.22V238.68C528.6 252.31 515.13 259.81 503 259.81C493.15 259.81 485.32 254.61 483.54 246.87C481.17 236.62 490.26 228.07 499.62 223.48Z" fill="white"/>
<path d="M708.13 100.93C732.35 100.93 758.71 105.65 782.01 112.65L765.42 152.82C745.59 143.8 728.78 140.01 715.86 140.01C697.49 140.01 687.01 147.65 687.01 158.77C687.01 186.2 787.31 174.08 787.87 244.8C788.22 288.35 748.71 305.09 704.75 305.09C676.49 305.09 646.39 298.16 623.87 286.99L640.92 243.42C662.2 257.99 684.52 264.37 701.44 264.37C718.36 264.37 729.52 258.2 729.57 247.54C729.66 231.11 699.75 227.13 679.04 219.46C649.15 208.38 628.38 191.02 628.64 158.75C629.01 115.7 665.19 100.89 708.11 100.89M708.13 99.09C656.02 99.09 627.14 120.28 626.82 158.77C626.56 188.24 642.97 208.09 678.41 221.21C683.26 223.01 688.66 224.61 693.88 226.17C710.55 231.15 727.8 236.29 727.74 247.56C727.68 256.82 717.62 262.55 701.45 262.55C682.78 262.55 661.1 255.03 641.95 241.92L640.04 240.62L639.19 242.77L622.14 286.34L621.53 287.9L623.04 288.65C646.12 300.1 676.67 306.93 704.73 306.93C735.3 306.93 760.09 298.92 774.52 284.38C784.7 274.11 789.81 260.79 789.68 244.78C789.33 199.87 749.59 187.27 720.59 178.04C702.84 172.4 688.82 167.95 688.82 158.77C688.82 148.33 699.16 141.85 715.83 141.85C729.59 141.85 746.46 146.22 764.63 154.49L766.36 155.28L767.09 153.52L783.68 113.35L784.45 111.48L782.5 110.89C757.22 103.28 730.8 99.08 708.08 99.08L708.1 99.1L708.13 99.09Z" fill="white"/>
<path d="M188.15 5.05002L105.69 233.83L66.11 110.13H7.41003L73.12 279.1C78.65 293.49 78.65 309.43 73.12 323.82C65.75 342.6 53.61 358.79 23.79 362.85V412.92C81.76 412.92 113.24 377.22 141.22 298.98L250.93 5.05002H188.16H188.15Z" fill="url(#paint4_linear_2_51)"/>
<path d="M23.78 417.99H18.73V358.44L23.1 357.85C52.17 353.9 62.31 337.51 68.39 322C73.48 308.78 73.48 294.15 68.39 280.93L0 105.1H69.8L105.96 218.14L184.58 0H258.19L145.94 300.77C120.79 371.11 90.38 418 23.77 418L23.78 417.99ZM28.85 367.19V407.78C79.05 405.91 108.56 375.31 136.45 297.3L243.63 10.13H191.72L105.42 249.58L62.44 115.23H14.79L77.81 277.31C83.82 292.93 83.82 310.09 77.81 325.69C71.36 342.15 59.95 361.46 28.82 367.22L28.84 367.2L28.85 367.19Z" fill="white"/>
<defs>
<linearGradient id="paint0_linear_2_51" x1="311.03" y1="305.91" x2="311.03" y2="101.68" gradientUnits="userSpaceOnUse">
<stop stop-color="#570732"/>
<stop offset="0.04" stop-color="#620A3A"/>
<stop offset="0.16" stop-color="#7B114B"/>
<stop offset="0.29" stop-color="#8E1758"/>
<stop offset="0.44" stop-color="#9B1B61"/>
<stop offset="0.64" stop-color="#A31D67"/>
<stop offset="1" stop-color="#A61E69"/>
</linearGradient>
<linearGradient id="paint1_linear_2_51" x1="862.84" y1="345.39" x2="862.84" y2="54.75" gradientUnits="userSpaceOnUse">
<stop stop-color="#570732"/>
<stop offset="0.04" stop-color="#620A3A"/>
<stop offset="0.16" stop-color="#7B114B"/>
<stop offset="0.29" stop-color="#8E1758"/>
<stop offset="0.44" stop-color="#9B1B61"/>
<stop offset="0.64" stop-color="#A31D67"/>
<stop offset="1" stop-color="#A61E69"/>
</linearGradient>
<linearGradient id="paint2_linear_2_51" x1="516.38" y1="305.23" x2="516.38" y2="101.05" gradientUnits="userSpaceOnUse">
<stop stop-color="#570732"/>
<stop offset="0.04" stop-color="#620A3A"/>
<stop offset="0.16" stop-color="#7B114B"/>
<stop offset="0.29" stop-color="#8E1758"/>
<stop offset="0.44" stop-color="#9B1B61"/>
<stop offset="0.64" stop-color="#A31D67"/>
<stop offset="1" stop-color="#A61E69"/>
</linearGradient>
<linearGradient id="paint3_linear_2_51" x1="705.76" y1="306.06" x2="705.76" y2="100.03" gradientUnits="userSpaceOnUse">
<stop stop-color="#570732"/>
<stop offset="0.04" stop-color="#620A3A"/>
<stop offset="0.16" stop-color="#7B114B"/>
<stop offset="0.29" stop-color="#8E1758"/>
<stop offset="0.44" stop-color="#9B1B61"/>
<stop offset="0.64" stop-color="#A31D67"/>
<stop offset="1" stop-color="#A61E69"/>
</linearGradient>
<linearGradient id="paint4_linear_2_51" x1="129.16" y1="2.51002" x2="129.16" y2="404.85" gradientUnits="userSpaceOnUse">
<stop offset="0.3" stop-color="#77B227"/>
<stop offset="0.43" stop-color="#73AF27"/>
<stop offset="0.53" stop-color="#69A627"/>
<stop offset="0.63" stop-color="#589827"/>
<stop offset="0.72" stop-color="#418428"/>
<stop offset="0.8" stop-color="#246B29"/>
</linearGradient>
</defs>
</svg>
